<mxfile host="www.draw.io" modified="2019-12-02T02:14:12.478Z" agent="Mozilla/5.0 (Windows NT 10.0; Win64; x64) AppleWebKit/537.36 (KHTML, like Gecko) Chrome/77.0.3865.120 Safari/537.36" etag="pXbuRG6DzKOrSHdTdibf" version="12.3.3" type="github" pages="1">
  <diagram id="U5MJr6G4HQvpx7QKTnu_" name="Page-1">
    <mxGraphModel dx="925" dy="512" grid="1" gridSize="10" guides="1" tooltips="1" connect="1" arrows="1" fold="1" page="1" pageScale="1" pageWidth="827" pageHeight="1169" math="0" shadow="0">
      <root>
        <mxCell id="0"/>
        <mxCell id="1" parent="0"/>
        <mxCell id="PqN_USd8AFwf5FaQlG_g-4" style="edgeStyle=orthogonalEdgeStyle;rounded=0;orthogonalLoop=1;jettySize=auto;html=1;entryX=0;entryY=0.5;entryDx=0;entryDy=0;" edge="1" parent="1" source="PqN_USd8AFwf5FaQlG_g-1" target="PqN_USd8AFwf5FaQlG_g-2">
          <mxGeometry relative="1" as="geometry">
            <mxPoint x="270" y="180" as="targetPoint"/>
          </mxGeometry>
        </mxCell>
        <mxCell id="PqN_USd8AFwf5FaQlG_g-1" value="&lt;font&gt;&lt;span style=&quot;font-size: 18px&quot;&gt;Nginx集群&lt;/span&gt;&lt;br&gt;&lt;div&gt;&lt;span style=&quot;font-size: 18px&quot;&gt;10.48.34.140&lt;/span&gt;&lt;/div&gt;&lt;div&gt;&lt;span style=&quot;font-size: 18px&quot;&gt;10.48.34.141&lt;/span&gt;&lt;/div&gt;&lt;div&gt;&lt;span style=&quot;font-size: 18px&quot;&gt;10.48.21.155&lt;/span&gt;&lt;/div&gt;&lt;div&gt;&lt;span style=&quot;font-size: 18px&quot;&gt;10.48.21.156&lt;/span&gt;&lt;/div&gt;&lt;/font&gt;" style="rounded=0;whiteSpace=wrap;html=1;" vertex="1" parent="1">
          <mxGeometry x="50" y="120" width="150" height="130" as="geometry"/>
        </mxCell>
        <mxCell id="PqN_USd8AFwf5FaQlG_g-2" value="&lt;font style=&quot;font-size: 18px&quot;&gt;suggest&lt;/font&gt;" style="rounded=0;whiteSpace=wrap;html=1;" vertex="1" parent="1">
          <mxGeometry x="490" y="155" width="120" height="60" as="geometry"/>
        </mxCell>
        <mxCell id="PqN_USd8AFwf5FaQlG_g-6" style="edgeStyle=orthogonalEdgeStyle;rounded=0;orthogonalLoop=1;jettySize=auto;html=1;exitX=1;exitY=0.25;exitDx=0;exitDy=0;entryX=0.5;entryY=1;entryDx=0;entryDy=0;" edge="1" parent="1" source="PqN_USd8AFwf5FaQlG_g-3" target="PqN_USd8AFwf5FaQlG_g-2">
          <mxGeometry relative="1" as="geometry"/>
        </mxCell>
        <mxCell id="PqN_USd8AFwf5FaQlG_g-3" value="&lt;font style=&quot;font-size: 18px&quot;&gt;prometheus Server&lt;br&gt;192.168.70.113&lt;/font&gt;" style="rounded=0;whiteSpace=wrap;html=1;" vertex="1" parent="1">
          <mxGeometry x="170" y="300" width="190" height="70" as="geometry"/>
        </mxCell>
        <mxCell id="PqN_USd8AFwf5FaQlG_g-7" value="&lt;font style=&quot;font-size: 18px&quot;&gt;业务请求&lt;/font&gt;" style="text;html=1;align=center;verticalAlign=middle;resizable=0;points=[];;autosize=1;" vertex="1" parent="1">
          <mxGeometry x="265" y="155" width="90" height="20" as="geometry"/>
        </mxCell>
        <mxCell id="PqN_USd8AFwf5FaQlG_g-8" value="&lt;font style=&quot;font-size: 18px&quot;&gt;监控指标请求&lt;/font&gt;" style="text;html=1;align=center;verticalAlign=middle;resizable=0;points=[];;autosize=1;" vertex="1" parent="1">
          <mxGeometry x="400" y="290" width="120" height="20" as="geometry"/>
        </mxCell>
      </root>
    </mxGraphModel>
  </diagram>
</mxfile>
